<svg width="239" height="37" viewBox="0 0 239 37" fill="none" xmlns="http://www.w3.org/2000/svg">
<path d="M24.3404 0.888916H21.2242L0 37.0006H20.195L22.9875 31.3L25.9246 37.0006H46.7382L24.3404 0.888916ZM22.8257 5.46214L33.0937 22.009H13.101L22.8257 5.46214ZM17.8882 33.3004H6.4638L10.9272 25.7034H21.6115L17.8882 33.3004ZM24.2826 25.7034H35.389L40.1068 33.3004H28.1794L24.2826 25.7034Z" fill="white"/>
<path d="M65.0252 36.5149H60.3652L70.7721 12.0068H75.6575L86.284 36.5149H81.3986L78.6292 29.8256H70.4599L72.0209 25.8884H76.9526L73.102 16.6841L65.0252 36.5149Z" fill="white"/>
<path d="M102.733 12.0068V15.921H95.7022V36.5149H91.1637V15.921H84.1333V12.0068H102.733Z" fill="white"/>
<path d="M113.012 36.5149V12.0068H122.61C130.704 12.0068 134.761 15.8612 134.78 23.57C134.78 32.1922 130.723 36.5014 122.61 36.4976L113.012 36.5149ZM122.61 32.5719C127.697 32.5719 130.239 29.577 130.236 23.5873C130.236 18.4764 127.694 15.921 122.61 15.921H117.557V32.5719H122.61Z" fill="white"/>
<path d="M143.175 12.0068V36.5149H138.636V12.0068H143.175Z" fill="white"/>
<path d="M167.856 35.3819C165.497 36.3203 162.97 36.7631 160.433 36.6828C151.784 36.6828 147.459 32.4275 147.459 23.917C147.459 15.8652 151.859 11.8374 160.658 11.8335C163.11 11.7914 165.55 12.197 167.856 13.0303V17.141C165.689 16.2171 163.355 15.7506 160.999 15.7708C155.114 15.7708 152.171 18.4843 152.171 23.9112C152.171 29.7969 154.948 32.7378 160.502 32.7339C161.452 32.7176 162.397 32.5796 163.312 32.3234V25.2005H167.856V35.3819Z" fill="white"/>
<path d="M176.679 12.0068V36.5149H172.141V12.0068H176.679Z" fill="white"/>
<path d="M197.845 12.0068V15.921H190.821V36.5149H186.277V15.921H179.229V12.0068H197.845Z" fill="white"/>
<path d="M200.366 36.5149H195.706L206.113 12.0068H210.999L221.619 36.5149H216.74L213.918 29.8256H205.824L207.385 25.8884H212.323L208.466 16.6841L200.366 36.5149Z" fill="white"/>
<path d="M229.159 12.0068V32.5719H238.889V36.5149H224.614V12.0068H229.159Z" fill="white"/>
</svg>
